<?xml version="1.0" encoding="UTF-8"?>
<svg xmlns="http://www.w3.org/2000/svg" xmlns:xlink="http://www.w3.org/1999/xlink" width="20px" height="20px" viewBox="0 0 20 20" version="1.1">
<g id="surface1">
<path style=" stroke:none;fill-rule:nonzero;fill:rgb(0%,0%,0%);fill-opacity:1;" d="M 4.5 10.148438 L 4.648438 10.148438 L 4.648438 10.175781 L 4.699219 10.175781 L 4.699219 10.199219 L 4.726562 10.199219 L 4.726562 10.226562 L 4.75 10.226562 L 4.75 10.25 L 4.800781 10.25 L 4.800781 10.273438 L 4.824219 10.273438 L 4.824219 10.300781 L 4.851562 10.300781 L 4.851562 10.324219 L 4.875 10.324219 L 4.875 10.351562 L 4.898438 10.351562 L 4.898438 10.375 L 4.925781 10.375 L 4.925781 10.398438 L 4.976562 10.398438 L 4.976562 10.425781 L 5.023438 10.425781 L 5.023438 10.449219 L 5.074219 10.449219 L 5.074219 10.476562 L 5.125 10.476562 L 5.125 10.5 L 5.199219 10.5 L 5.199219 10.523438 L 5.300781 10.523438 L 5.300781 10.550781 L 5.675781 10.550781 L 5.675781 10.523438 L 5.75 10.523438 L 5.75 10.5 L 5.824219 10.5 L 5.824219 10.476562 L 5.898438 10.476562 L 5.898438 10.449219 L 5.925781 10.449219 L 5.925781 10.425781 L 5.976562 10.425781 L 5.976562 10.398438 L 6 10.398438 L 6 10.375 L 6.050781 10.375 L 6.050781 10.351562 L 6.074219 10.351562 L 6.074219 10.324219 L 6.101562 10.324219 L 6.101562 10.300781 L 6.148438 10.300781 L 6.148438 10.273438 L 6.175781 10.273438 L 6.175781 10.25 L 6.199219 10.25 L 6.199219 10.226562 L 6.226562 10.226562 L 6.226562 10.199219 L 6.398438 10.199219 L 6.398438 10.226562 L 6.476562 10.226562 L 6.476562 10.25 L 6.574219 10.25 L 6.574219 10.273438 L 6.625 10.273438 L 6.625 10.300781 L 6.699219 10.300781 L 6.699219 10.324219 L 6.75 10.324219 L 6.75 10.351562 L 6.800781 10.351562 L 6.800781 10.375 L 6.851562 10.375 L 6.851562 10.398438 L 6.898438 10.398438 L 6.898438 10.425781 L 6.925781 10.425781 L 6.925781 10.449219 L 6.976562 10.449219 L 6.976562 10.476562 L 7.023438 10.476562 L 7.023438 10.5 L 7.050781 10.5 L 7.050781 10.523438 L 7.101562 10.523438 L 7.101562 10.550781 L 7.125 10.550781 L 7.125 10.574219 L 7.175781 10.574219 L 7.175781 10.601562 L 7.199219 10.601562 L 7.199219 10.625 L 7.226562 10.625 L 7.226562 10.648438 L 7.273438 10.648438 L 7.273438 10.675781 L 7.300781 10.675781 L 7.300781 10.699219 L 7.324219 10.699219 L 7.324219 10.726562 L 7.351562 10.726562 L 7.351562 10.75 L 7.375 10.75 L 7.375 10.773438 L 7.398438 10.773438 L 7.398438 10.800781 L 7.425781 10.800781 L 7.425781 10.824219 L 7.449219 10.824219 L 7.449219 10.851562 L 7.476562 10.851562 L 7.476562 10.875 L 7.5 10.875 L 7.5 10.898438 L 7.523438 10.898438 L 7.523438 10.925781 L 7.550781 10.925781 L 7.550781 10.949219 L 7.574219 10.949219 L 7.574219 10.976562 L 7.601562 10.976562 L 7.601562 11 L 7.625 11 L 7.625 11.023438 L 7.648438 11.023438 L 7.648438 11.074219 L 7.675781 11.074219 L 7.675781 11.101562 L 7.699219 11.101562 L 7.699219 11.125 L 7.726562 11.125 L 7.726562 11.148438 L 7.75 11.148438 L 7.75 11.199219 L 7.773438 11.199219 L 7.773438 11.25 L 7.800781 11.25 L 7.800781 11.273438 L 7.824219 11.273438 L 7.824219 11.324219 L 7.851562 11.324219 L 7.851562 11.375 L 7.875 11.375 L 7.875 11.398438 L 7.925781 11.398438 L 7.925781 11.375 L 7.976562 11.375 L 7.976562 11.351562 L 8 11.351562 L 8 11.324219 L 8.050781 11.324219 L 8.050781 11.300781 L 8.101562 11.300781 L 8.101562 11.273438 L 8.148438 11.273438 L 8.148438 11.25 L 8.199219 11.25 L 8.199219 11.226562 L 8.25 11.226562 L 8.25 11.199219 L 8.300781 11.199219 L 8.300781 11.175781 L 8.351562 11.175781 L 8.351562 11.148438 L 8.425781 11.148438 L 8.425781 11.125 L 8.476562 11.125 L 8.476562 11.101562 L 8.550781 11.101562 L 8.550781 11.074219 L 8.625 11.074219 L 8.625 11.050781 L 8.726562 11.050781 L 8.726562 11.023438 L 8.824219 11.023438 L 8.824219 11 L 8.925781 11 L 8.925781 10.976562 L 9.125 10.976562 L 9.125 11 L 9.175781 11 L 9.175781 11.023438 L 9.199219 11.023438 L 9.199219 11.050781 L 9.226562 11.050781 L 9.226562 11.074219 L 9.25 11.074219 L 9.25 11.101562 L 9.273438 11.101562 L 9.273438 11.125 L 9.300781 11.125 L 9.300781 11.148438 L 9.324219 11.148438 L 9.324219 11.175781 L 9.351562 11.175781 L 9.351562 11.199219 L 9.375 11.199219 L 9.375 11.226562 L 9.425781 11.226562 L 9.425781 11.25 L 9.449219 11.25 L 9.449219 11.273438 L 9.5 11.273438 L 9.5 11.300781 L 9.523438 11.300781 L 9.523438 11.324219 L 9.574219 11.324219 L 9.574219 11.351562 L 9.625 11.351562 L 9.625 11.375 L 9.699219 11.375 L 9.699219 11.398438 L 9.75 11.398438 L 9.75 11.425781 L 9.824219 11.425781 L 9.824219 11.449219 L 9.949219 11.449219 L 9.949219 11.476562 L 10.375 11.476562 L 10.375 11.449219 L 10.5 11.449219 L 10.5 11.425781 L 10.550781 11.425781 L 10.550781 11.398438 L 10.625 11.398438 L 10.625 11.375 L 10.699219 11.375 L 10.699219 11.351562 L 10.75 11.351562 L 10.75 11.324219 L 10.773438 11.324219 L 10.773438 11.300781 L 10.824219 11.300781 L 10.824219 11.273438 L 10.875 11.273438 L 10.875 11.25 L 10.898438 11.25 L 10.898438 11.226562 L 10.949219 11.226562 L 10.949219 11.199219 L 10.976562 11.199219 L 10.976562 11.175781 L 11 11.175781 L 11 11.148438 L 11.023438 11.148438 L 11.023438 11.125 L 11.050781 11.125 L 11.050781 11.101562 L 11.074219 11.101562 L 11.074219 11.074219 L 11.125 11.074219 L 11.125 11.050781 L 11.148438 11.050781 L 11.148438 11.023438 L 11.300781 11.023438 L 11.300781 11.050781 L 11.375 11.050781 L 11.375 11.074219 L 11.476562 11.074219 L 11.476562 11.101562 L 11.523438 11.101562 L 11.523438 11.125 L 11.601562 11.125 L 11.601562 11.148438 L 11.648438 11.148438 L 11.648438 11.175781 L 11.726562 11.175781 L 11.726562 11.199219 L 11.773438 11.199219 L 11.773438 11.226562 L 11.824219 11.226562 L 11.824219 11.25 L 11.875 11.25 L 11.875 11.273438 L 11.925781 11.273438 L 11.925781 11.300781 L 11.976562 11.300781 L 11.976562 11.324219 L 12 11.324219 L 12 11.351562 L 12.050781 11.351562 L 12.050781 11.375 L 12.074219 11.375 L 12.074219 11.398438 L 12.125 11.398438 L 12.125 11.375 L 12.148438 11.375 L 12.148438 11.351562 L 12.175781 11.351562 L 12.175781 11.300781 L 12.199219 11.300781 L 12.199219 11.273438 L 12.226562 11.273438 L 12.226562 11.226562 L 12.25 11.226562 L 12.25 11.199219 L 12.273438 11.199219 L 12.273438 11.148438 L 12.300781 11.148438 L 12.300781 11.125 L 12.324219 11.125 L 12.324219 11.074219 L 12.351562 11.074219 L 12.351562 11.050781 L 12.375 11.050781 L 12.375 11.023438 L 12.398438 11.023438 L 12.398438 10.976562 L 12.425781 10.976562 L 12.425781 10.949219 L 12.449219 10.949219 L 12.449219 10.925781 L 12.476562 10.925781 L 12.476562 10.898438 L 12.5 10.898438 L 12.5 10.875 L 12.523438 10.875 L 12.523438 10.851562 L 12.550781 10.851562 L 12.550781 10.824219 L 12.574219 10.824219 L 12.574219 10.800781 L 12.601562 10.800781 L 12.601562 10.773438 L 12.625 10.773438 L 12.625 10.75 L 12.648438 10.75 L 12.648438 10.726562 L 12.675781 10.726562 L 12.675781 10.699219 L 12.726562 10.699219 L 12.726562 10.675781 L 12.75 10.675781 L 12.75 10.648438 L 12.773438 10.648438 L 12.773438 10.625 L 12.824219 10.625 L 12.824219 10.601562 L 12.851562 10.601562 L 12.851562 10.574219 L 12.875 10.574219 L 12.875 10.550781 L 12.925781 10.550781 L 12.925781 10.523438 L 12.949219 10.523438 L 12.949219 10.5 L 13 10.5 L 13 10.476562 L 13.023438 10.476562 L 13.023438 10.449219 L 13.074219 10.449219 L 13.074219 10.425781 L 13.125 10.425781 L 13.125 10.398438 L 13.175781 10.398438 L 13.175781 10.375 L 13.199219 10.375 L 13.199219 10.351562 L 13.273438 10.351562 L 13.273438 10.324219 L 13.324219 10.324219 L 13.324219 10.300781 L 13.375 10.300781 L 13.375 10.273438 L 13.449219 10.273438 L 13.449219 10.25 L 13.523438 10.25 L 13.523438 10.226562 L 13.625 10.226562 L 13.625 10.199219 L 13.699219 10.199219 L 13.699219 10.175781 L 13.800781 10.175781 L 13.800781 10.148438 L 13.976562 10.148438 L 13.976562 10.175781 L 14 10.175781 L 14 10.199219 L 14.023438 10.199219 L 14.023438 10.226562 L 14.074219 10.226562 L 14.074219 10.25 L 14.101562 10.25 L 14.101562 10.273438 L 14.125 10.273438 L 14.125 10.300781 L 14.148438 10.300781 L 14.148438 10.324219 L 14.175781 10.324219 L 14.175781 10.351562 L 14.199219 10.351562 L 14.199219 10.375 L 14.25 10.375 L 14.25 10.398438 L 14.273438 10.398438 L 14.273438 10.425781 L 14.324219 10.425781 L 14.324219 10.449219 L 14.375 10.449219 L 14.375 10.476562 L 14.425781 10.476562 L 14.425781 10.5 L 14.5 10.5 L 14.5 10.523438 L 14.601562 10.523438 L 14.601562 10.550781 L 14.976562 10.550781 L 14.976562 10.523438 L 15.050781 10.523438 L 15.050781 10.5 L 15.125 10.5 L 15.125 10.476562 L 15.175781 10.476562 L 15.175781 10.449219 L 15.226562 10.449219 L 15.226562 10.425781 L 15.273438 10.425781 L 15.273438 10.398438 L 15.324219 10.398438 L 15.324219 10.375 L 15.351562 10.375 L 15.351562 10.351562 L 15.398438 10.351562 L 15.398438 10.324219 L 15.425781 10.324219 L 15.425781 10.300781 L 15.449219 10.300781 L 15.449219 10.273438 L 15.476562 10.273438 L 15.476562 10.25 L 15.5 10.25 L 15.5 10.226562 L 15.523438 10.226562 L 15.523438 10.199219 L 15.699219 10.199219 L 15.699219 10.226562 L 15.773438 10.226562 L 15.773438 10.25 L 15.875 10.25 L 15.875 10.273438 L 15.949219 10.273438 L 15.949219 10.300781 L 16 10.300781 L 16 10.324219 L 16.050781 10.324219 L 16.050781 10.351562 L 16.101562 10.351562 L 16.101562 10.375 L 16.148438 10.375 L 16.148438 10.398438 L 16.199219 10.398438 L 16.199219 10.425781 L 16.25 10.425781 L 16.25 10.449219 L 16.273438 10.449219 L 16.273438 10.476562 L 16.324219 10.476562 L 16.324219 10.5 L 16.375 10.5 L 16.375 10.523438 L 16.398438 10.523438 L 16.398438 10.550781 L 16.425781 10.550781 L 16.425781 10.574219 L 16.476562 10.574219 L 16.476562 10.601562 L 16.5 10.601562 L 16.5 10.625 L 16.550781 10.625 L 16.550781 10.648438 L 16.574219 10.648438 L 16.574219 10.675781 L 16.601562 10.675781 L 16.601562 10.699219 L 16.625 10.699219 L 16.625 10.726562 L 16.648438 10.726562 L 16.648438 10.75 L 16.675781 10.75 L 16.675781 10.773438 L 16.726562 10.773438 L 16.726562 10.800781 L 16.75 10.800781 L 16.75 10.824219 L 16.773438 10.824219 L 16.773438 10.851562 L 16.800781 10.851562 L 16.800781 10.875 L 16.824219 10.875 L 16.824219 10.925781 L 16.851562 10.925781 L 16.851562 10.949219 L 16.875 10.949219 L 16.875 10.976562 L 16.898438 10.976562 L 16.898438 11 L 16.925781 11 L 16.925781 11.023438 L 16.949219 11.023438 L 16.949219 11.050781 L 16.976562 11.050781 L 16.976562 11.101562 L 17 11.101562 L 17 11.125 L 17.023438 11.125 L 17.023438 11.148438 L 17.050781 11.148438 L 17.050781 11.199219 L 17.074219 11.199219 L 17.074219 11.226562 L 17.101562 11.226562 L 17.101562 11.273438 L 17.125 11.273438 L 17.125 11.300781 L 17.148438 11.300781 L 17.148438 11.351562 L 17.175781 11.351562 L 17.175781 11.398438 L 17.199219 11.398438 L 17.199219 11.449219 L 17.226562 11.449219 L 17.226562 11.5 L 17.25 11.5 L 17.25 11.550781 L 17.273438 11.550781 L 17.273438 11.601562 L 17.300781 11.601562 L 17.300781 11.648438 L 17.324219 11.648438 L 17.324219 11.726562 L 17.351562 11.726562 L 17.351562 11.800781 L 17.375 11.800781 L 17.375 11.875 L 17.398438 11.875 L 17.398438 11.949219 L 17.425781 11.949219 L 17.425781 12.050781 L 17.449219 12.050781 L 17.449219 12.199219 L 17.476562 12.199219 L 17.476562 12.375 L 17.5 12.375 L 17.5 12.648438 L 17.476562 12.648438 L 17.476562 12.726562 L 17.449219 12.726562 L 17.449219 12.75 L 17.425781 12.75 L 17.425781 12.773438 L 17.398438 12.773438 L 17.398438 12.800781 L 17.375 12.800781 L 17.375 12.824219 L 17.226562 12.824219 L 17.226562 12.851562 L 15.648438 12.851562 L 15.648438 12.824219 L 15.550781 12.824219 L 15.550781 12.851562 L 15.523438 12.851562 L 15.523438 12.824219 L 14.125 12.824219 L 14.125 12.851562 L 13.300781 12.851562 L 13.300781 12.898438 L 13.324219 12.898438 L 13.324219 12.949219 L 13.351562 12.949219 L 13.351562 13 L 13.375 13 L 13.375 13.074219 L 13.398438 13.074219 L 13.398438 13.148438 L 13.425781 13.148438 L 13.425781 13.25 L 13.449219 13.25 L 13.449219 13.375 L 13.476562 13.375 L 13.476562 13.5 L 13.5 13.5 L 13.5 13.699219 L 13.523438 13.699219 L 13.523438 14.074219 L 13.5 14.074219 L 13.5 14.125 L 13.476562 14.125 L 13.476562 14.148438 L 13.449219 14.148438 L 13.449219 14.175781 L 13.425781 14.175781 L 13.425781 14.199219 L 13.398438 14.199219 L 13.398438 14.226562 L 13.351562 14.226562 L 13.351562 14.25 L 6.648438 14.25 L 6.648438 14.226562 L 6.601562 14.226562 L 6.601562 14.199219 L 6.574219 14.199219 L 6.574219 14.175781 L 6.550781 14.175781 L 6.550781 14.148438 L 6.523438 14.148438 L 6.523438 14.101562 L 6.5 14.101562 L 6.5 14 L 6.476562 14 L 6.476562 13.851562 L 6.5 13.851562 L 6.5 13.601562 L 6.523438 13.601562 L 6.523438 13.449219 L 6.550781 13.449219 L 6.550781 13.300781 L 6.574219 13.300781 L 6.574219 13.199219 L 6.601562 13.199219 L 6.601562 13.125 L 6.625 13.125 L 6.625 13.050781 L 6.648438 13.050781 L 6.648438 12.976562 L 6.675781 12.976562 L 6.675781 12.898438 L 6.699219 12.898438 L 6.699219 12.851562 L 6.125 12.851562 L 6.125 12.824219 L 6.074219 12.824219 L 6.074219 12.851562 L 6.023438 12.851562 L 6.023438 12.824219 L 5.226562 12.824219 L 5.226562 12.851562 L 5.199219 12.851562 L 5.199219 12.824219 L 4.550781 12.824219 L 4.550781 12.851562 L 4.523438 12.851562 L 4.523438 12.824219 L 4.5 12.824219 L 4.5 12.851562 L 2.675781 12.851562 L 2.675781 12.824219 L 2.625 12.824219 L 2.625 12.800781 L 2.601562 12.800781 L 2.601562 12.773438 L 2.574219 12.773438 L 2.574219 12.726562 L 2.550781 12.726562 L 2.550781 12.675781 L 2.523438 12.675781 L 2.523438 12.273438 L 2.550781 12.273438 L 2.550781 12.125 L 2.574219 12.125 L 2.574219 12 L 2.601562 12 L 2.601562 11.925781 L 2.625 11.925781 L 2.625 11.824219 L 2.648438 11.824219 L 2.648438 11.75 L 2.675781 11.75 L 2.675781 11.699219 L 2.699219 11.699219 L 2.699219 11.625 L 2.726562 11.625 L 2.726562 11.574219 L 2.75 11.574219 L 2.75 11.523438 L 2.773438 11.523438 L 2.773438 11.476562 L 2.800781 11.476562 L 2.800781 11.425781 L 2.824219 11.425781 L 2.824219 11.375 L 2.851562 11.375 L 2.851562 11.324219 L 2.875 11.324219 L 2.875 11.300781 L 2.898438 11.300781 L 2.898438 11.25 L 2.925781 11.25 L 2.925781 11.226562 L 2.949219 11.226562 L 2.949219 11.175781 L 2.976562 11.175781 L 2.976562 11.148438 L 3 11.148438 L 3 11.125 L 3.023438 11.125 L 3.023438 11.074219 L 3.050781 11.074219 L 3.050781 11.050781 L 3.074219 11.050781 L 3.074219 11.023438 L 3.101562 11.023438 L 3.101562 10.976562 L 3.125 10.976562 L 3.125 10.949219 L 3.148438 10.949219 L 3.148438 10.925781 L 3.175781 10.925781 L 3.175781 10.898438 L 3.199219 10.898438 L 3.199219 10.875 L 3.226562 10.875 L 3.226562 10.851562 L 3.25 10.851562 L 3.25 10.824219 L 3.273438 10.824219 L 3.273438 10.800781 L 3.300781 10.800781 L 3.300781 10.773438 L 3.324219 10.773438 L 3.324219 10.75 L 3.351562 10.75 L 3.351562 10.726562 L 3.375 10.726562 L 3.375 10.699219 L 3.398438 10.699219 L 3.398438 10.675781 L 3.449219 10.675781 L 3.449219 10.648438 L 3.476562 10.648438 L 3.476562 10.625 L 3.5 10.625 L 3.5 10.601562 L 3.550781 10.601562 L 3.550781 10.574219 L 3.574219 10.574219 L 3.574219 10.550781 L 3.625 10.550781 L 3.625 10.523438 L 3.648438 10.523438 L 3.648438 10.5 L 3.675781 10.5 L 3.675781 10.476562 L 3.726562 10.476562 L 3.726562 10.449219 L 3.773438 10.449219 L 3.773438 10.425781 L 3.824219 10.425781 L 3.824219 10.398438 L 3.851562 10.398438 L 3.851562 10.375 L 3.898438 10.375 L 3.898438 10.351562 L 3.976562 10.351562 L 3.976562 10.324219 L 4.023438 10.324219 L 4.023438 10.300781 L 4.074219 10.300781 L 4.074219 10.273438 L 4.148438 10.273438 L 4.148438 10.25 L 4.226562 10.25 L 4.226562 10.226562 L 4.324219 10.226562 L 4.324219 10.199219 L 4.398438 10.199219 L 4.398438 10.175781 L 4.5 10.175781 Z M 4.5 10.148438 "/>
<path style=" stroke:none;fill-rule:nonzero;fill:rgb(0%,0%,0%);fill-opacity:1;" d="M 9.949219 5.800781 L 10.300781 5.800781 L 10.300781 5.824219 L 10.476562 5.824219 L 10.476562 5.851562 L 10.625 5.851562 L 10.625 5.875 L 10.699219 5.875 L 10.699219 5.898438 L 10.800781 5.898438 L 10.800781 5.925781 L 10.875 5.925781 L 10.875 5.949219 L 10.925781 5.949219 L 10.925781 5.976562 L 11 5.976562 L 11 6 L 11.050781 6 L 11.050781 6.023438 L 11.101562 6.023438 L 11.101562 6.050781 L 11.148438 6.050781 L 11.148438 6.074219 L 11.199219 6.074219 L 11.199219 6.101562 L 11.226562 6.101562 L 11.226562 6.125 L 11.273438 6.125 L 11.273438 6.148438 L 11.300781 6.148438 L 11.300781 6.175781 L 11.351562 6.175781 L 11.351562 6.199219 L 11.375 6.199219 L 11.375 6.226562 L 11.398438 6.226562 L 11.398438 6.25 L 11.449219 6.25 L 11.449219 6.273438 L 11.476562 6.273438 L 11.476562 6.300781 L 11.5 6.300781 L 11.5 6.324219 L 11.523438 6.324219 L 11.523438 6.351562 L 11.550781 6.351562 L 11.550781 6.375 L 11.574219 6.375 L 11.574219 6.398438 L 11.601562 6.398438 L 11.601562 6.425781 L 11.625 6.425781 L 11.625 6.449219 L 11.648438 6.449219 L 11.648438 6.476562 L 11.675781 6.476562 L 11.675781 6.5 L 11.699219 6.5 L 11.699219 6.523438 L 11.726562 6.523438 L 11.726562 6.550781 L 11.75 6.550781 L 11.75 6.601562 L 11.773438 6.601562 L 11.773438 6.625 L 11.800781 6.625 L 11.800781 6.648438 L 11.824219 6.648438 L 11.824219 6.699219 L 11.851562 6.699219 L 11.851562 6.75 L 11.875 6.75 L 11.875 6.800781 L 11.898438 6.800781 L 11.898438 6.824219 L 11.925781 6.824219 L 11.925781 6.875 L 11.949219 6.875 L 11.949219 6.925781 L 11.976562 6.925781 L 11.976562 7 L 12 7 L 12 7.050781 L 12.023438 7.050781 L 12.023438 7.125 L 12.050781 7.125 L 12.050781 7.199219 L 12.074219 7.199219 L 12.074219 7.273438 L 12.101562 7.273438 L 12.101562 7.375 L 12.125 7.375 L 12.125 7.550781 L 12.148438 7.550781 L 12.148438 7.648438 L 12.175781 7.648438 L 12.175781 7.75 L 12.148438 7.75 L 12.148438 7.851562 L 12.175781 7.851562 L 12.175781 7.898438 L 12.199219 7.898438 L 12.199219 7.925781 L 12.226562 7.925781 L 12.226562 7.949219 L 12.25 7.949219 L 12.25 7.976562 L 12.273438 7.976562 L 12.273438 8 L 12.300781 8 L 12.300781 8.023438 L 12.324219 8.023438 L 12.324219 8.050781 L 12.351562 8.050781 L 12.351562 8.074219 L 12.375 8.074219 L 12.375 8.125 L 12.398438 8.125 L 12.398438 8.199219 L 12.425781 8.199219 L 12.425781 8.25 L 12.449219 8.25 L 12.449219 8.351562 L 12.476562 8.351562 L 12.476562 8.675781 L 12.449219 8.675781 L 12.449219 8.824219 L 12.425781 8.824219 L 12.425781 8.898438 L 12.398438 8.898438 L 12.398438 8.949219 L 12.375 8.949219 L 12.375 9.023438 L 12.351562 9.023438 L 12.351562 9.074219 L 12.324219 9.074219 L 12.324219 9.125 L 12.300781 9.125 L 12.300781 9.148438 L 12.273438 9.148438 L 12.273438 9.199219 L 12.25 9.199219 L 12.25 9.226562 L 12.226562 9.226562 L 12.226562 9.25 L 12.199219 9.25 L 12.199219 9.273438 L 12.175781 9.273438 L 12.175781 9.300781 L 12.148438 9.300781 L 12.148438 9.324219 L 12.125 9.324219 L 12.125 9.351562 L 12.074219 9.351562 L 12.074219 9.375 L 12.023438 9.375 L 12.023438 9.398438 L 11.949219 9.398438 L 11.949219 9.425781 L 11.925781 9.425781 L 11.925781 9.449219 L 11.898438 9.449219 L 11.898438 9.550781 L 11.875 9.550781 L 11.875 9.648438 L 11.851562 9.648438 L 11.851562 9.726562 L 11.824219 9.726562 L 11.824219 9.773438 L 11.800781 9.773438 L 11.800781 9.824219 L 11.773438 9.824219 L 11.773438 9.898438 L 11.75 9.898438 L 11.75 9.949219 L 11.726562 9.949219 L 11.726562 10 L 11.699219 10 L 11.699219 10.023438 L 11.675781 10.023438 L 11.675781 10.074219 L 11.648438 10.074219 L 11.648438 10.125 L 11.625 10.125 L 11.625 10.148438 L 11.601562 10.148438 L 11.601562 10.199219 L 11.574219 10.199219 L 11.574219 10.226562 L 11.550781 10.226562 L 11.550781 10.25 L 11.523438 10.25 L 11.523438 10.300781 L 11.5 10.300781 L 11.5 10.324219 L 11.476562 10.324219 L 11.476562 10.351562 L 11.449219 10.351562 L 11.449219 10.375 L 11.425781 10.375 L 11.425781 10.398438 L 11.398438 10.398438 L 11.398438 10.425781 L 11.375 10.425781 L 11.375 10.449219 L 11.351562 10.449219 L 11.351562 10.476562 L 11.324219 10.476562 L 11.324219 10.5 L 11.300781 10.5 L 11.300781 10.523438 L 11.273438 10.523438 L 11.273438 10.550781 L 11.25 10.550781 L 11.25 10.574219 L 11.199219 10.574219 L 11.199219 10.601562 L 11.175781 10.601562 L 11.175781 10.625 L 11.125 10.625 L 11.125 10.648438 L 11.101562 10.648438 L 11.101562 10.675781 L 11.050781 10.675781 L 11.050781 10.699219 L 11 10.699219 L 11 10.726562 L 10.976562 10.726562 L 10.976562 10.75 L 10.925781 10.75 L 10.925781 10.773438 L 10.851562 10.773438 L 10.851562 10.800781 L 10.800781 10.800781 L 10.800781 10.824219 L 10.726562 10.824219 L 10.726562 10.851562 L 10.648438 10.851562 L 10.648438 10.875 L 10.550781 10.875 L 10.550781 10.898438 L 10.375 10.898438 L 10.375 10.925781 L 9.898438 10.925781 L 9.898438 10.898438 L 9.773438 10.898438 L 9.773438 10.875 L 9.675781 10.875 L 9.675781 10.851562 L 9.601562 10.851562 L 9.601562 10.824219 L 9.523438 10.824219 L 9.523438 10.800781 L 9.476562 10.800781 L 9.476562 10.773438 L 9.425781 10.773438 L 9.425781 10.75 L 9.375 10.75 L 9.375 10.726562 L 9.324219 10.726562 L 9.324219 10.699219 L 9.273438 10.699219 L 9.273438 10.675781 L 9.226562 10.675781 L 9.226562 10.648438 L 9.199219 10.648438 L 9.199219 10.625 L 9.148438 10.625 L 9.148438 10.601562 L 9.125 10.601562 L 9.125 10.574219 L 9.101562 10.574219 L 9.101562 10.550781 L 9.074219 10.550781 L 9.074219 10.523438 L 9.023438 10.523438 L 9.023438 10.5 L 9 10.5 L 9 10.476562 L 8.976562 10.476562 L 8.976562 10.449219 L 8.949219 10.449219 L 8.949219 10.425781 L 8.925781 10.425781 L 8.925781 10.398438 L 8.898438 10.398438 L 8.898438 10.375 L 8.875 10.375 L 8.875 10.351562 L 8.851562 10.351562 L 8.851562 10.324219 L 8.824219 10.324219 L 8.824219 10.273438 L 8.800781 10.273438 L 8.800781 10.25 L 8.773438 10.25 L 8.773438 10.226562 L 8.75 10.226562 L 8.75 10.175781 L 8.726562 10.175781 L 8.726562 10.148438 L 8.699219 10.148438 L 8.699219 10.101562 L 8.675781 10.101562 L 8.675781 10.050781 L 8.648438 10.050781 L 8.648438 10.023438 L 8.625 10.023438 L 8.625 9.976562 L 8.601562 9.976562 L 8.601562 9.925781 L 8.574219 9.925781 L 8.574219 9.875 L 8.550781 9.875 L 8.550781 9.800781 L 8.523438 9.800781 L 8.523438 9.75 L 8.5 9.75 L 8.5 9.675781 L 8.476562 9.675781 L 8.476562 9.601562 L 8.449219 9.601562 L 8.449219 9.5 L 8.425781 9.5 L 8.425781 9.425781 L 8.398438 9.425781 L 8.398438 9.398438 L 8.351562 9.398438 L 8.351562 9.375 L 8.300781 9.375 L 8.300781 9.351562 L 8.25 9.351562 L 8.25 9.324219 L 8.226562 9.324219 L 8.226562 9.300781 L 8.199219 9.300781 L 8.199219 9.273438 L 8.175781 9.273438 L 8.175781 9.25 L 8.148438 9.25 L 8.148438 9.226562 L 8.125 9.226562 L 8.125 9.199219 L 8.101562 9.199219 L 8.101562 9.148438 L 8.074219 9.148438 L 8.074219 9.125 L 8.050781 9.125 L 8.050781 9.074219 L 8.023438 9.074219 L 8.023438 9.023438 L 8 9.023438 L 8 9 L 7.976562 9 L 7.976562 8.925781 L 7.949219 8.925781 L 7.949219 8.875 L 7.925781 8.875 L 7.925781 8.800781 L 7.898438 8.800781 L 7.898438 8.699219 L 7.875 8.699219 L 7.875 8.351562 L 7.898438 8.351562 L 7.898438 8.273438 L 7.925781 8.273438 L 7.925781 8.199219 L 7.949219 8.199219 L 7.949219 8.175781 L 7.976562 8.175781 L 7.976562 8.125 L 8 8.125 L 8 8.074219 L 8.023438 8.074219 L 8.023438 8.050781 L 8.050781 8.050781 L 8.050781 8.023438 L 8.074219 8.023438 L 8.074219 8 L 8.125 8 L 8.125 7.976562 L 8.148438 7.976562 L 8.148438 7.949219 L 8.199219 7.949219 L 8.199219 7.875 L 8.226562 7.875 L 8.226562 7.523438 L 8.25 7.523438 L 8.25 7.375 L 8.273438 7.375 L 8.273438 7.226562 L 8.300781 7.226562 L 8.300781 7.125 L 8.324219 7.125 L 8.324219 7.050781 L 8.351562 7.050781 L 8.351562 6.976562 L 8.375 6.976562 L 8.375 6.925781 L 8.398438 6.925781 L 8.398438 6.851562 L 8.425781 6.851562 L 8.425781 6.800781 L 8.449219 6.800781 L 8.449219 6.75 L 8.476562 6.75 L 8.476562 6.726562 L 8.5 6.726562 L 8.5 6.675781 L 8.523438 6.675781 L 8.523438 6.648438 L 8.550781 6.648438 L 8.550781 6.601562 L 8.574219 6.601562 L 8.574219 6.574219 L 8.601562 6.574219 L 8.601562 6.550781 L 8.625 6.550781 L 8.625 6.523438 L 8.648438 6.523438 L 8.648438 6.5 L 8.675781 6.5 L 8.675781 6.476562 L 8.699219 6.476562 L 8.699219 6.449219 L 8.726562 6.449219 L 8.726562 6.425781 L 8.75 6.425781 L 8.75 6.398438 L 8.800781 6.398438 L 8.800781 6.375 L 8.824219 6.375 L 8.824219 6.351562 L 8.875 6.351562 L 8.875 6.324219 L 8.925781 6.324219 L 8.925781 6.300781 L 8.976562 6.300781 L 8.976562 6.273438 L 9.023438 6.273438 L 9.023438 6.25 L 9.101562 6.25 L 9.101562 6.226562 L 9.226562 6.226562 L 9.226562 6.199219 L 9.425781 6.199219 L 9.425781 6.175781 L 9.449219 6.175781 L 9.449219 6.125 L 9.476562 6.125 L 9.476562 6.074219 L 9.5 6.074219 L 9.5 6.050781 L 9.523438 6.050781 L 9.523438 6.023438 L 9.550781 6.023438 L 9.550781 6 L 9.574219 6 L 9.574219 5.976562 L 9.601562 5.976562 L 9.601562 5.949219 L 9.625 5.949219 L 9.625 5.925781 L 9.648438 5.925781 L 9.648438 5.898438 L 9.699219 5.898438 L 9.699219 5.875 L 9.75 5.875 L 9.75 5.851562 L 9.824219 5.851562 L 9.824219 5.824219 L 9.949219 5.824219 Z M 9.949219 5.800781 "/>
<path style=" stroke:none;fill-rule:nonzero;fill:rgb(0%,0%,0%);fill-opacity:1;" d="M 14.648438 6.050781 L 14.675781 6.050781 L 14.675781 6.074219 L 14.773438 6.074219 L 14.773438 6.050781 L 14.851562 6.050781 L 14.851562 6.074219 L 15.050781 6.074219 L 15.050781 6.101562 L 15.148438 6.101562 L 15.148438 6.125 L 15.25 6.125 L 15.25 6.148438 L 15.324219 6.148438 L 15.324219 6.175781 L 15.398438 6.175781 L 15.398438 6.199219 L 15.449219 6.199219 L 15.449219 6.226562 L 15.523438 6.226562 L 15.523438 6.25 L 15.550781 6.25 L 15.550781 6.273438 L 15.625 6.273438 L 15.625 6.300781 L 15.648438 6.300781 L 15.648438 6.324219 L 15.699219 6.324219 L 15.699219 6.351562 L 15.726562 6.351562 L 15.726562 6.375 L 15.773438 6.375 L 15.773438 6.398438 L 15.800781 6.398438 L 15.800781 6.425781 L 15.824219 6.425781 L 15.824219 6.449219 L 15.851562 6.449219 L 15.851562 6.476562 L 15.898438 6.476562 L 15.898438 6.5 L 15.925781 6.5 L 15.925781 6.523438 L 15.949219 6.523438 L 15.949219 6.550781 L 15.976562 6.550781 L 15.976562 6.574219 L 16 6.574219 L 16 6.625 L 16.023438 6.625 L 16.023438 6.648438 L 16.050781 6.648438 L 16.050781 6.675781 L 16.074219 6.675781 L 16.074219 6.699219 L 16.101562 6.699219 L 16.101562 6.75 L 16.125 6.75 L 16.125 6.773438 L 16.148438 6.773438 L 16.148438 6.824219 L 16.175781 6.824219 L 16.175781 6.851562 L 16.199219 6.851562 L 16.199219 6.898438 L 16.226562 6.898438 L 16.226562 6.949219 L 16.25 6.949219 L 16.25 7 L 16.273438 7 L 16.273438 7.074219 L 16.300781 7.074219 L 16.300781 7.148438 L 16.324219 7.148438 L 16.324219 7.226562 L 16.351562 7.226562 L 16.351562 7.300781 L 16.375 7.300781 L 16.375 7.425781 L 16.398438 7.425781 L 16.398438 7.675781 L 16.425781 7.675781 L 16.425781 7.75 L 16.449219 7.75 L 16.449219 7.773438 L 16.476562 7.773438 L 16.476562 7.800781 L 16.5 7.800781 L 16.5 7.824219 L 16.523438 7.824219 L 16.523438 7.851562 L 16.550781 7.851562 L 16.550781 7.898438 L 16.574219 7.898438 L 16.574219 7.925781 L 16.601562 7.925781 L 16.601562 8 L 16.625 8 L 16.625 8.050781 L 16.648438 8.050781 L 16.648438 8.175781 L 16.675781 8.175781 L 16.675781 8.324219 L 16.648438 8.324219 L 16.648438 8.476562 L 16.625 8.476562 L 16.625 8.550781 L 16.601562 8.550781 L 16.601562 8.625 L 16.574219 8.625 L 16.574219 8.675781 L 16.550781 8.675781 L 16.550781 8.726562 L 16.523438 8.726562 L 16.523438 8.773438 L 16.5 8.773438 L 16.5 8.800781 L 16.476562 8.800781 L 16.476562 8.851562 L 16.449219 8.851562 L 16.449219 8.875 L 16.425781 8.875 L 16.425781 8.898438 L 16.398438 8.898438 L 16.398438 8.925781 L 16.375 8.925781 L 16.375 8.949219 L 16.324219 8.949219 L 16.324219 8.976562 L 16.273438 8.976562 L 16.273438 9 L 16.25 9 L 16.25 9.023438 L 16.226562 9.023438 L 16.226562 9.050781 L 16.199219 9.050781 L 16.199219 9.125 L 16.175781 9.125 L 16.175781 9.226562 L 16.148438 9.226562 L 16.148438 9.273438 L 16.125 9.273438 L 16.125 9.324219 L 16.101562 9.324219 L 16.101562 9.375 L 16.074219 9.375 L 16.074219 9.425781 L 16.050781 9.425781 L 16.050781 9.476562 L 16.023438 9.476562 L 16.023438 9.523438 L 16 9.523438 L 16 9.550781 L 15.976562 9.550781 L 15.976562 9.601562 L 15.949219 9.601562 L 15.949219 9.625 L 15.925781 9.625 L 15.925781 9.675781 L 15.898438 9.675781 L 15.898438 9.699219 L 15.875 9.699219 L 15.875 9.726562 L 15.851562 9.726562 L 15.851562 9.75 L 15.824219 9.75 L 15.824219 9.773438 L 15.800781 9.773438 L 15.800781 9.800781 L 15.773438 9.800781 L 15.773438 9.824219 L 15.75 9.824219 L 15.75 9.851562 L 15.726562 9.851562 L 15.726562 9.875 L 15.699219 9.875 L 15.699219 9.898438 L 15.675781 9.898438 L 15.675781 9.925781 L 15.625 9.925781 L 15.625 9.949219 L 15.601562 9.949219 L 15.601562 9.976562 L 15.550781 9.976562 L 15.550781 10 L 15.523438 10 L 15.523438 10.023438 L 15.476562 10.023438 L 15.476562 10.050781 L 15.425781 10.050781 L 15.425781 10.074219 L 15.375 10.074219 L 15.375 10.101562 L 15.324219 10.101562 L 15.324219 10.125 L 15.273438 10.125 L 15.273438 10.148438 L 15.199219 10.148438 L 15.199219 10.175781 L 15.074219 10.175781 L 15.074219 10.199219 L 14.925781 10.199219 L 14.925781 10.226562 L 14.648438 10.226562 L 14.648438 10.199219 L 14.476562 10.199219 L 14.476562 10.175781 L 14.375 10.175781 L 14.375 10.148438 L 14.300781 10.148438 L 14.300781 10.125 L 14.226562 10.125 L 14.226562 10.101562 L 14.175781 10.101562 L 14.175781 10.074219 L 14.125 10.074219 L 14.125 10.050781 L 14.074219 10.050781 L 14.074219 10.023438 L 14.023438 10.023438 L 14.023438 10 L 14 10 L 14 9.976562 L 13.949219 9.976562 L 13.949219 9.949219 L 13.925781 9.949219 L 13.925781 9.925781 L 13.898438 9.925781 L 13.898438 9.898438 L 13.875 9.898438 L 13.875 9.875 L 13.824219 9.875 L 13.824219 9.851562 L 13.800781 9.851562 L 13.800781 9.824219 L 13.773438 9.824219 L 13.773438 9.773438 L 13.75 9.773438 L 13.75 9.75 L 13.726562 9.75 L 13.726562 9.726562 L 13.699219 9.726562 L 13.699219 9.699219 L 13.675781 9.699219 L 13.675781 9.675781 L 13.648438 9.675781 L 13.648438 9.625 L 13.625 9.625 L 13.625 9.601562 L 13.601562 9.601562 L 13.601562 9.550781 L 13.574219 9.550781 L 13.574219 9.523438 L 13.550781 9.523438 L 13.550781 9.476562 L 13.523438 9.476562 L 13.523438 9.425781 L 13.5 9.425781 L 13.5 9.375 L 13.476562 9.375 L 13.476562 9.324219 L 13.449219 9.324219 L 13.449219 9.273438 L 13.425781 9.273438 L 13.425781 9.199219 L 13.398438 9.199219 L 13.398438 9.125 L 13.375 9.125 L 13.375 9.023438 L 13.351562 9.023438 L 13.351562 9 L 13.324219 9 L 13.324219 8.976562 L 13.273438 8.976562 L 13.273438 8.949219 L 13.25 8.949219 L 13.25 8.925781 L 13.199219 8.925781 L 13.199219 8.898438 L 13.175781 8.898438 L 13.175781 8.875 L 13.148438 8.875 L 13.148438 8.851562 L 13.125 8.851562 L 13.125 8.800781 L 13.101562 8.800781 L 13.101562 8.773438 L 13.074219 8.773438 L 13.074219 8.726562 L 13.050781 8.726562 L 13.050781 8.699219 L 13.023438 8.699219 L 13.023438 8.648438 L 13 8.648438 L 13 8.601562 L 12.976562 8.601562 L 12.976562 8.523438 L 12.949219 8.523438 L 12.949219 8.425781 L 12.925781 8.425781 L 12.925781 8.101562 L 12.949219 8.101562 L 12.949219 8.023438 L 12.976562 8.023438 L 12.976562 7.976562 L 13 7.976562 L 13 7.925781 L 13.023438 7.925781 L 13.023438 7.898438 L 13.050781 7.898438 L 13.050781 7.875 L 13.074219 7.875 L 13.074219 7.851562 L 13.101562 7.851562 L 13.101562 7.824219 L 13.125 7.824219 L 13.125 7.800781 L 13.148438 7.800781 L 13.148438 7.773438 L 13.175781 7.773438 L 13.175781 7.726562 L 13.199219 7.726562 L 13.199219 7.476562 L 13.226562 7.476562 L 13.226562 7.300781 L 13.25 7.300781 L 13.25 7.199219 L 13.273438 7.199219 L 13.273438 7.101562 L 13.300781 7.101562 L 13.300781 7.023438 L 13.324219 7.023438 L 13.324219 6.949219 L 13.351562 6.949219 L 13.351562 6.898438 L 13.375 6.898438 L 13.375 6.851562 L 13.398438 6.851562 L 13.398438 6.800781 L 13.425781 6.800781 L 13.425781 6.773438 L 13.449219 6.773438 L 13.449219 6.726562 L 13.476562 6.726562 L 13.476562 6.699219 L 13.5 6.699219 L 13.5 6.675781 L 13.523438 6.675781 L 13.523438 6.648438 L 13.550781 6.648438 L 13.550781 6.625 L 13.574219 6.625 L 13.574219 6.601562 L 13.601562 6.601562 L 13.601562 6.574219 L 13.625 6.574219 L 13.625 6.550781 L 13.648438 6.550781 L 13.648438 6.523438 L 13.699219 6.523438 L 13.699219 6.5 L 13.75 6.5 L 13.75 6.476562 L 13.773438 6.476562 L 13.773438 6.449219 L 13.851562 6.449219 L 13.851562 6.425781 L 13.898438 6.425781 L 13.898438 6.398438 L 13.976562 6.398438 L 13.976562 6.375 L 14.175781 6.375 L 14.175781 6.324219 L 14.199219 6.324219 L 14.199219 6.273438 L 14.226562 6.273438 L 14.226562 6.25 L 14.25 6.25 L 14.25 6.226562 L 14.273438 6.226562 L 14.273438 6.199219 L 14.300781 6.199219 L 14.300781 6.175781 L 14.324219 6.175781 L 14.324219 6.148438 L 14.375 6.148438 L 14.375 6.125 L 14.425781 6.125 L 14.425781 6.101562 L 14.5 6.101562 L 14.5 6.074219 L 14.648438 6.074219 Z M 14.648438 6.050781 "/>
<path style=" stroke:none;fill-rule:nonzero;fill:rgb(0%,0%,0%);fill-opacity:1;" d="M 5.5 6.050781 L 5.523438 6.050781 L 5.523438 6.074219 L 5.75 6.074219 L 5.75 6.101562 L 5.824219 6.101562 L 5.824219 6.125 L 5.949219 6.125 L 5.949219 6.148438 L 6.023438 6.148438 L 6.023438 6.175781 L 6.101562 6.175781 L 6.101562 6.199219 L 6.148438 6.199219 L 6.148438 6.226562 L 6.199219 6.226562 L 6.199219 6.25 L 6.25 6.25 L 6.25 6.273438 L 6.300781 6.273438 L 6.300781 6.300781 L 6.351562 6.300781 L 6.351562 6.324219 L 6.398438 6.324219 L 6.398438 6.351562 L 6.425781 6.351562 L 6.425781 6.375 L 6.449219 6.375 L 6.449219 6.398438 L 6.5 6.398438 L 6.5 6.425781 L 6.523438 6.425781 L 6.523438 6.449219 L 6.550781 6.449219 L 6.550781 6.476562 L 6.574219 6.476562 L 6.574219 6.5 L 6.601562 6.5 L 6.601562 6.523438 L 6.625 6.523438 L 6.625 6.550781 L 6.648438 6.550781 L 6.648438 6.574219 L 6.675781 6.574219 L 6.675781 6.601562 L 6.699219 6.601562 L 6.699219 6.625 L 6.726562 6.625 L 6.726562 6.648438 L 6.75 6.648438 L 6.75 6.675781 L 6.773438 6.675781 L 6.773438 6.699219 L 6.800781 6.699219 L 6.800781 6.75 L 6.824219 6.75 L 6.824219 6.773438 L 6.851562 6.773438 L 6.851562 6.824219 L 6.875 6.824219 L 6.875 6.875 L 6.898438 6.875 L 6.898438 6.898438 L 6.925781 6.898438 L 6.925781 6.949219 L 6.949219 6.949219 L 6.949219 7.023438 L 6.976562 7.023438 L 6.976562 7.074219 L 7 7.074219 L 7 7.148438 L 7.023438 7.148438 L 7.023438 7.226562 L 7.050781 7.226562 L 7.050781 7.324219 L 7.074219 7.324219 L 7.074219 7.449219 L 7.101562 7.449219 L 7.101562 7.699219 L 7.125 7.699219 L 7.125 7.75 L 7.148438 7.75 L 7.148438 7.773438 L 7.175781 7.773438 L 7.175781 7.800781 L 7.199219 7.800781 L 7.199219 7.824219 L 7.226562 7.824219 L 7.226562 7.851562 L 7.25 7.851562 L 7.25 7.898438 L 7.273438 7.898438 L 7.273438 7.949219 L 7.300781 7.949219 L 7.300781 8 L 7.324219 8 L 7.324219 8.074219 L 7.351562 8.074219 L 7.351562 8.449219 L 7.324219 8.449219 L 7.324219 8.550781 L 7.300781 8.550781 L 7.300781 8.625 L 7.273438 8.625 L 7.273438 8.675781 L 7.25 8.675781 L 7.25 8.726562 L 7.226562 8.726562 L 7.226562 8.773438 L 7.199219 8.773438 L 7.199219 8.800781 L 7.175781 8.800781 L 7.175781 8.824219 L 7.148438 8.824219 L 7.148438 8.875 L 7.125 8.875 L 7.125 8.898438 L 7.101562 8.898438 L 7.101562 8.925781 L 7.074219 8.925781 L 7.074219 8.949219 L 7.050781 8.949219 L 7.050781 8.976562 L 6.949219 8.976562 L 6.949219 9 L 6.898438 9 L 6.898438 9.125 L 6.875 9.125 L 6.875 9.199219 L 6.851562 9.199219 L 6.851562 9.25 L 6.824219 9.25 L 6.824219 9.324219 L 6.800781 9.324219 L 6.800781 9.351562 L 6.773438 9.351562 L 6.773438 9.425781 L 6.75 9.425781 L 6.75 9.449219 L 6.726562 9.449219 L 6.726562 9.523438 L 6.699219 9.523438 L 6.699219 9.550781 L 6.675781 9.550781 L 6.675781 9.601562 L 6.648438 9.601562 L 6.648438 9.625 L 6.625 9.625 L 6.625 9.648438 L 6.601562 9.648438 L 6.601562 9.699219 L 6.574219 9.699219 L 6.574219 9.726562 L 6.550781 9.726562 L 6.550781 9.75 L 6.523438 9.75 L 6.523438 9.773438 L 6.5 9.773438 L 6.5 9.800781 L 6.476562 9.800781 L 6.476562 9.824219 L 6.449219 9.824219 L 6.449219 9.851562 L 6.425781 9.851562 L 6.425781 9.875 L 6.398438 9.875 L 6.398438 9.898438 L 6.375 9.898438 L 6.375 9.925781 L 6.324219 9.925781 L 6.324219 9.949219 L 6.300781 9.949219 L 6.300781 9.976562 L 6.25 9.976562 L 6.25 10 L 6.226562 10 L 6.226562 10.023438 L 6.175781 10.023438 L 6.175781 10.050781 L 6.125 10.050781 L 6.125 10.074219 L 6.074219 10.074219 L 6.074219 10.101562 L 6 10.101562 L 6 10.125 L 5.949219 10.125 L 5.949219 10.148438 L 5.875 10.148438 L 5.875 10.175781 L 5.773438 10.175781 L 5.773438 10.199219 L 5.625 10.199219 L 5.625 10.226562 L 5.351562 10.226562 L 5.351562 10.199219 L 5.148438 10.199219 L 5.148438 10.175781 L 5.074219 10.175781 L 5.074219 10.148438 L 5 10.148438 L 5 10.125 L 4.925781 10.125 L 4.925781 10.101562 L 4.875 10.101562 L 4.875 10.074219 L 4.824219 10.074219 L 4.824219 10.050781 L 4.773438 10.050781 L 4.773438 10.023438 L 4.726562 10.023438 L 4.726562 10 L 4.699219 10 L 4.699219 9.976562 L 4.648438 9.976562 L 4.648438 9.949219 L 4.625 9.949219 L 4.625 9.925781 L 4.601562 9.925781 L 4.601562 9.898438 L 4.550781 9.898438 L 4.550781 9.875 L 4.523438 9.875 L 4.523438 9.851562 L 4.5 9.851562 L 4.5 9.824219 L 4.476562 9.824219 L 4.476562 9.800781 L 4.449219 9.800781 L 4.449219 9.773438 L 4.425781 9.773438 L 4.425781 9.726562 L 4.398438 9.726562 L 4.398438 9.699219 L 4.375 9.699219 L 4.375 9.675781 L 4.351562 9.675781 L 4.351562 9.648438 L 4.324219 9.648438 L 4.324219 9.601562 L 4.300781 9.601562 L 4.300781 9.574219 L 4.273438 9.574219 L 4.273438 9.523438 L 4.25 9.523438 L 4.25 9.476562 L 4.226562 9.476562 L 4.226562 9.449219 L 4.199219 9.449219 L 4.199219 9.375 L 4.175781 9.375 L 4.175781 9.324219 L 4.148438 9.324219 L 4.148438 9.273438 L 4.125 9.273438 L 4.125 9.226562 L 4.101562 9.226562 L 4.101562 9.125 L 4.074219 9.125 L 4.074219 9.023438 L 4.050781 9.023438 L 4.050781 9 L 4 9 L 4 8.976562 L 3.976562 8.976562 L 3.976562 8.949219 L 3.925781 8.949219 L 3.925781 8.925781 L 3.898438 8.925781 L 3.898438 8.898438 L 3.875 8.898438 L 3.875 8.875 L 3.851562 8.875 L 3.851562 8.851562 L 3.824219 8.851562 L 3.824219 8.824219 L 3.800781 8.824219 L 3.800781 8.800781 L 3.773438 8.800781 L 3.773438 8.75 L 3.75 8.75 L 3.75 8.699219 L 3.726562 8.699219 L 3.726562 8.675781 L 3.699219 8.675781 L 3.699219 8.601562 L 3.675781 8.601562 L 3.675781 8.523438 L 3.648438 8.523438 L 3.648438 8.449219 L 3.625 8.449219 L 3.625 8.351562 L 3.601562 8.351562 L 3.601562 8.273438 L 3.625 8.273438 L 3.625 8.074219 L 3.648438 8.074219 L 3.648438 8.023438 L 3.675781 8.023438 L 3.675781 7.976562 L 3.699219 7.976562 L 3.699219 7.925781 L 3.726562 7.925781 L 3.726562 7.898438 L 3.75 7.898438 L 3.75 7.851562 L 3.773438 7.851562 L 3.773438 7.824219 L 3.800781 7.824219 L 3.800781 7.800781 L 3.824219 7.800781 L 3.824219 7.773438 L 3.875 7.773438 L 3.875 7.699219 L 3.898438 7.699219 L 3.898438 7.574219 L 3.875 7.574219 L 3.875 7.523438 L 3.898438 7.523438 L 3.898438 7.375 L 3.925781 7.375 L 3.925781 7.273438 L 3.949219 7.273438 L 3.949219 7.148438 L 3.976562 7.148438 L 3.976562 7.074219 L 4 7.074219 L 4 7 L 4.023438 7 L 4.023438 6.949219 L 4.050781 6.949219 L 4.050781 6.898438 L 4.074219 6.898438 L 4.074219 6.851562 L 4.101562 6.851562 L 4.101562 6.800781 L 4.125 6.800781 L 4.125 6.773438 L 4.148438 6.773438 L 4.148438 6.726562 L 4.175781 6.726562 L 4.175781 6.699219 L 4.199219 6.699219 L 4.199219 6.675781 L 4.226562 6.675781 L 4.226562 6.648438 L 4.25 6.648438 L 4.25 6.625 L 4.273438 6.625 L 4.273438 6.601562 L 4.300781 6.601562 L 4.300781 6.574219 L 4.324219 6.574219 L 4.324219 6.550781 L 4.351562 6.550781 L 4.351562 6.523438 L 4.398438 6.523438 L 4.398438 6.5 L 4.449219 6.5 L 4.449219 6.476562 L 4.476562 6.476562 L 4.476562 6.449219 L 4.550781 6.449219 L 4.550781 6.425781 L 4.601562 6.425781 L 4.601562 6.398438 L 4.675781 6.398438 L 4.675781 6.375 L 4.875 6.375 L 4.875 6.324219 L 4.898438 6.324219 L 4.898438 6.273438 L 4.925781 6.273438 L 4.925781 6.25 L 4.949219 6.25 L 4.949219 6.226562 L 4.976562 6.226562 L 4.976562 6.199219 L 5 6.199219 L 5 6.175781 L 5.023438 6.175781 L 5.023438 6.148438 L 5.074219 6.148438 L 5.074219 6.125 L 5.125 6.125 L 5.125 6.101562 L 5.199219 6.101562 L 5.199219 6.074219 L 5.5 6.074219 Z M 5.5 6.050781 "/>
</g>
</svg>
